<?xml version="1.0" encoding="utf-8"?>
<!-- Generator: Adobe Illustrator 26.0.0, SVG Export Plug-In . SVG Version: 6.00 Build 0)  -->
<svg version="1.1" id="Layer_1" xmlns="http://www.w3.org/2000/svg" xmlns:xlink="http://www.w3.org/1999/xlink" x="0px" y="0px"
	 viewBox="0 0 122.9 122.9" style="enable-background:new 0 0 122.9 122.9;" xml:space="preserve">
<style type="text/css">
	.st0{fill-rule:evenodd;clip-rule:evenodd;fill:#eeefff;}
</style>
<path class="st0" d="M73.5,15.8c4,1.2,7.8,2.9,11.4,5.2l6.1-6.2c3-2.9,7.8-2.9,10.7,0l6.3,6.3c2.9,3,2.9,7.8,0,10.7l-6.6,6.6
	c1.9,3.4,3.4,7.1,4.3,10.9h9.5c4.2,0,7.6,3.4,7.6,7.6c0,0,0,0,0,0v8.9c0,4.2-3.4,7.6-7.6,7.6h-9.6c-1,3.8-2.5,7.4-4.4,10.8L108,91
	c2.9,3,2.9,7.8,0,10.7l-6.3,6.3c-3,3-7.8,3-10.7,0l-6.3-6.3c-3.5,2.1-7.3,3.8-11.2,5v8.6c0,4.2-3.4,7.6-7.6,7.6H57
	c-4.2,0-7.6-3.4-7.6-7.6v-7.8c-4.3-1-8.5-2.6-12.3-4.7l-5.2,5.2c-3,2.9-7.8,2.9-10.7,0l-6.3-6.3c-2.9-3-2.9-7.8,0-10.7l4.7-4.7
	c-2.5-4-4.3-8.3-5.6-12.8H7.6c-4.2,0-7.6-3.4-7.6-7.6V57c0-4.2,3.4-7.6,7.6-7.6h6.4c1.2-4.6,3-8.9,5.5-12.9l-4.6-4.6
	c-2.9-3-2.9-7.8,0-10.7l6.3-6.3c3-2.9,7.8-2.9,10.7,0l5,5C40.8,17.6,45,16,49.4,15V7.6C49.4,3.4,52.8,0,57,0h8.9
	c4.2,0,7.6,3.4,7.6,7.6V15.8z M59.9,36.7c13.6,0,24.6,11,24.6,24.6s-11,24.6-24.6,24.6s-24.6-11-24.6-24.6c0,0,0,0,0,0
	C35.3,47.7,46.3,36.7,59.9,36.7C59.9,36.7,59.9,36.7,59.9,36.7z"/>
</svg>
